<?xml version="1.0" encoding="UTF-8"?>
<svg width="52px" height="51px" viewBox="0 0 52 51" version="1.1" xmlns="http://www.w3.org/2000/svg" xmlns:xlink="http://www.w3.org/1999/xlink">
    <!-- Generator: Sketch 57.1 (83088) - https://sketch.com -->
    <title>icon</title>
    <desc>Created with Sketch.</desc>
    <g id="realme-C3" stroke="none" stroke-width="1" fill="none" fill-rule="evenodd">
        <g id="pc_2560_realme-C3(M8)" transform="translate(-1512.000000, -8635.000000)" stroke-width="2.8">
            <g id="08_camera" transform="translate(0.000000, 7795.000000)">
                <g id="text" transform="translate(1505.000000, 391.000000)">
                    <g id="1080p" transform="translate(8.000000, 432.000000)">
                        <g id="icon" transform="translate(0.000000, 19.000000)">
                            <g id="编组">
                                <path d="M42.65,23.8 C42.65,33.6585286 34.6596599,41.65 24.8007288,41.65 C14.9417977,41.65 6.95,33.6585286 6.95,23.8 C6.95,13.9414714 14.9417977,5.95 24.8007288,5.95 C34.6596599,5.95 42.65,13.9414714 42.65,23.8 Z" id="Stroke-1" stroke="#000000"></path>
                                <circle id="Oval" stroke="#000000" cx="24.8" cy="23.8" r="10.71"></circle>
                                <circle id="Oval" stroke="#000000" cx="24.8" cy="23.8" r="2.38"></circle>
                                <path d="M22.42,34.2140979 L26.9692224,24.7816919" id="Path-25" stroke="#000000"></path>
                                <path d="M22.42,22.8284766 L27.8344128,13.09" id="Path-25" stroke="#000000"></path>
                                <path d="M15.9893727,17.613656 L22.6290344,24.7816919" id="Path-28" stroke="#000000"></path>
                                <path d="M26.6993727,22.373656 L33.3390344,29.5416919" id="Path-28" stroke="#000000"></path>
                                <path d="M24.8,21.42 L35.51,21.42" id="Path-26" stroke="#000000"></path>
                                <polyline id="Stroke-1" stroke="#050101" points="48.6294024 14.0001442 48.6294024 0.000144242425 34.6294024 0.000144242425"></polyline>
                                <polyline id="Stroke-3" stroke="#050101" points="14.999423 0.000144242425 0.99942303 0.000144242425 0.99942303 14.0001442"></polyline>
                                <polyline id="Stroke-5" stroke="#050101" points="0.99942303 33.600577 0.99942303 47.600577 14.999423 47.600577"></polyline>
                                <polyline id="Stroke-7" stroke="#050101" points="34.6294024 47.600577 48.6294024 47.600577 48.6294024 33.600577"></polyline>
                                <path d="M14.09,26.18 L24.8,26.18" id="Path-26" stroke="#000000"></path>
                            </g>
                        </g>
                    </g>
                </g>
            </g>
        </g>
    </g>
</svg>