<?xml version="1.0" encoding="UTF-8"?>
<svg width="340px" height="60px" viewBox="0 0 340 60" version="1.1" xmlns="http://www.w3.org/2000/svg" xmlns:xlink="http://www.w3.org/1999/xlink">
    <!-- Generator: Sketch 57.1 (83088) - https://sketch.com -->
    <title>logo</title>
    <desc>Created with Sketch.</desc>
    <defs>
        <polygon id="path-1" points="0.1431 0.16524 27.4122 0.16524 27.4122 41.83164 0.1431 41.83164"></polygon>
        <polygon id="path-3" points="0.5814 0.18414 41.0922 0.18414 41.0922 43.2 0.5814 43.2"></polygon>
        <polygon id="path-5" points="0 59.4 338.4 59.4 338.4 0 0 0"></polygon>
    </defs>
    <g id="realme-C3" stroke="none" stroke-width="1" fill="none" fill-rule="evenodd">
        <g id="pc_2560_realme-C3(M8)" transform="translate(-723.000000, -553.000000)">
            <g id="01_kv" transform="translate(0.000000, 119.000000)">
                <g id="01_txt" transform="translate(721.000000, 434.000000)">
                    <g id="logo" transform="translate(2.900000, 0.000000)">
                        <path d="M303.418294,28.4656543 L307.8,25.9159915 C304.284258,19.9177349 297.624924,16.2 290.366214,16.2 C278.242718,16.2 269.1,25.2915843 269.1,37.3508971 C269.1,49.4066214 278.242718,58.5 290.366214,58.5 C297.662497,58.5 304.32362,54.7607338 307.8,48.728386 L303.418294,46.2325514 C300.976061,50.6949099 295.878682,53.5693362 290.366214,53.5693362 C280.92828,53.5693362 274.075714,46.747508 274.075714,37.3508971 C274.075714,27.9184008 280.92828,21.0714528 290.366214,21.0714528 C295.977087,21.0714528 300.95638,23.9010223 303.418294,28.4656543" id="Fill-1" fill="#231916"></path>
                        <g id="编组" transform="translate(311.400000, 17.100000)">
                            <mask id="mask-2" fill="white">
                                <use xlink:href="#path-1"></use>
                            </mask>
                            <g id="Clip-4"></g>
                            <path d="M16.8417,17.10504 L16.5087,17.04204 L25.6419,4.72284 L25.6419,0.16524 L1.2717,0.16524 L1.2717,4.87584 L19.8405,4.87584 L19.5885,5.21424 L10.1151,18.02664 L12.1545,21.17124 L13.4559,21.17124 C18.8559,21.17124 22.3479,24.26724 22.3479,29.05884 C22.3479,33.81264 18.8559,36.88524 13.4559,36.88524 C8.8677,36.88524 5.6493,34.89084 4.3641,31.26204 L0.1431,33.75324 C2.1627,38.81844 7.1253,41.83164 13.4559,41.83164 C20.1789,41.83164 27.4131,37.83744 27.4131,29.05884 C27.4131,21.71124 21.9519,18.06624 16.8417,17.10504" id="Fill-3" fill="#231916" mask="url(#mask-2)"></path>
                        </g>
                        <path d="M30.817672,33.9832378 C32.3264388,26.0153061 38.9505577,21.2341855 46.0788034,21.2341855 C53.3732846,21.2341855 59.2421165,26.098456 60.2485634,33.9832378 L30.817672,33.9832378 Z M46.2468457,16.2 C33.5858526,16.2 25.2,25.7640487 25.2,37.8424788 C25.2,49.754609 32.998608,59.4 46.0788034,59.4 C54.715816,59.4 60.835808,55.4576091 64.4405862,49.248479 L59.7462434,46.2297753 C56.8949451,51.0958534 52.8709646,54.3658145 46.0788034,54.3658145 C37.0225886,54.3658145 30.7345543,47.3197623 30.6496297,38.7661659 L65.7,38.7661659 L65.7,37.2550065 C65.6150754,23.9184819 56.9798697,16.2 46.2468457,16.2 L46.2468457,16.2 Z" id="Fill-5" fill="#231916"></path>
                        <polygon id="Fill-7" fill="#231916" points="0 17.1 0 58.5 5.45960779 58.5 5.45960779 22.0675718 25.2 22.0675718 25.2 17.1"></polygon>
                        <path d="M206.317923,33.9832378 C207.826757,26.0153061 214.451171,21.2341855 221.577928,21.2341855 C228.872735,21.2341855 234.741828,26.098456 235.750127,33.9832378 L206.317923,33.9832378 Z M241.2,37.2550065 C241.116879,23.9184819 232.479481,16.2 221.745978,16.2 C209.08442,16.2 200.7,25.7640487 200.7,37.8424788 C200.7,49.754609 208.497149,59.4 221.577928,59.4 C230.215326,59.4 236.335591,55.4576091 239.942337,49.248479 L235.247785,46.2297753 C232.396359,51.0958534 228.370392,54.3658145 221.577928,54.3658145 C212.523116,54.3658145 206.232994,47.3197623 206.149873,38.7661659 L241.2,38.7661659 L241.2,37.2550065 Z" id="Fill-9" fill="#231916"></path>
                        <path d="M179.259562,16.2 C173.518924,16.2 168.360956,18.7906048 165.365139,23.7232027 C163.120518,19.3761031 159.043625,16.2 152.637849,16.2 C147.729084,16.2 143.236255,18.1222359 140.407171,22.301793 L140.407171,16.7854983 L135,16.7854983 L135,58.5 L140.407171,58.5 L140.407171,31.5832922 C140.407171,25.312155 146.065339,21.2154685 151.39004,21.2154685 C158.211753,21.2154685 161.872709,26.315609 161.872709,33.0875724 L161.872709,58.5 L167.27988,58.5 L167.27988,32.251661 C167.27988,24.1411584 173.185458,21.2154685 178.427689,21.2154685 C185.082669,21.2154685 188.994622,26.315609 188.994622,33.0875724 L188.994622,58.5 L194.4,58.5 L194.4,33.0875724 C194.4,22.8044208 188.827888,16.2 179.259562,16.2" id="Fill-11" fill="#231916"></path>
                        <g id="编组" transform="translate(70.200000, 16.200000)">
                            <mask id="mask-4" fill="white">
                                <use xlink:href="#path-3"></use>
                            </mask>
                            <g id="Clip-14"></g>
                            <path d="M21.3804,37.76994 C12.3588,37.76994 6.0102,30.58794 6.0102,21.73374 C6.0102,12.79494 12.3588,5.61294 21.3804,5.61294 C30.402,5.61294 36.5814,11.96154 36.5814,21.73374 C36.5814,31.42314 30.402,37.76994 21.3804,37.76994 L21.3804,37.76994 Z M35.7462,5.69574 C32.2398,2.27034 27.144,0.18414 21.7152,0.18414 C9.3528,0.18414 0.5814,9.53874 0.5814,21.73374 C0.5814,33.92874 9.3528,43.20054 21.7152,43.20054 C27.144,43.20054 32.2398,41.19534 35.7462,37.68714 L35.7462,42.53274 L41.0922,42.53274 L41.0922,0.85194 L35.7462,0.85194 L35.7462,5.69574 Z" id="Fill-13" fill="#231916" mask="url(#mask-4)"></path>
                        </g>
                        <mask id="mask-6" fill="white">
                            <use xlink:href="#path-5"></use>
                        </mask>
                        <g id="Clip-16"></g>
                        <polygon id="Fill-15" fill="#231916" mask="url(#mask-6)" points="120.6 58.5 126 58.5 126 0 120.6 0"></polygon>
                    </g>
                </g>
            </g>
        </g>
    </g>
</svg>