<?xml version="1.0" encoding="UTF-8"?>
<svg width="42px" height="42px" viewBox="0 0 42 42" version="1.1" xmlns="http://www.w3.org/2000/svg" xmlns:xlink="http://www.w3.org/1999/xlink">
    <!-- Generator: Sketch 61.2 (89653) - https://sketch.com -->
    <title>icon</title>
    <desc>Created with Sketch.</desc>
    <g id="h5" stroke="none" stroke-width="1" fill="none" fill-rule="evenodd">
        <g id="h5_360备份" transform="translate(-159.000000, -1763.000000)">
            <g id="03_video" transform="translate(0.000000, 1634.000000)">
                <g id="icon" transform="translate(160.000000, 130.000000)">
                    <circle id="椭圆形" stroke="#FFFFFF" stroke-width="2" cx="20" cy="20" r="20"></circle>
                    <path d="M24.1058719,15.1874671 L28.8152422,24.0625459 C29.3329838,25.0382597 28.961724,26.2489445 27.9860102,26.7666861 C27.6972851,26.9198919 27.3754111,27 27.0485561,27 L16.9415381,27 C15.8369686,27 14.9415381,26.1045695 14.9415381,25 C14.9415381,24.633442 15.042277,24.2739338 15.23275,23.9607488 L20.6303976,15.08567 C21.2043602,14.1419324 22.4346994,13.8421705 23.378437,14.4161331 C23.685891,14.6031205 23.9372003,14.8695958 24.1058719,15.1874671 Z" id="三角形" fill="#FFFFFF" transform="translate(22.000000, 20.500000) rotate(-270.000000) translate(-22.000000, -20.500000) "></path>
                </g>
            </g>
        </g>
    </g>
</svg>