<?xml version="1.0" encoding="UTF-8"?>
<svg width="50px" height="50px" viewBox="0 0 50 50" version="1.1" xmlns="http://www.w3.org/2000/svg" xmlns:xlink="http://www.w3.org/1999/xlink">
    <!-- Generator: Sketch 57.1 (83088) - https://sketch.com -->
    <title>icon</title>
    <desc>Created with Sketch.</desc>
    <g id="realme-C3" stroke="none" stroke-width="1" fill="none" fill-rule="evenodd">
        <g id="pc_2560_realme-C3(M8)" transform="translate(-1513.000000, -8345.000000)">
            <g id="08_camera" transform="translate(0.000000, 7795.000000)">
                <g id="text" transform="translate(1505.000000, 391.000000)">
                    <g id="super-chroma" transform="translate(0.000000, 151.000000)">
                        <g id="ic_google-lens-60">
                            <path d="M44.6173938,56.1 L37.7528137,56.1 L19.14,56.1 C14.0368889,56.1 9.9,51.9631111 9.9,46.86 L9.9,19.14 C9.9,14.0368889 14.0368889,9.9 19.14,9.9 L46.86,9.9 C51.9631111,9.9 56.1,14.0368889 56.1,19.14 L56.1,36.5583362 L56.1,44.630083" id="Path" stroke="#000000" stroke-width="2.2"></path>
                            <path d="M17.6,32.45 C17.6,23.6428261 24.7428261,16.5 33.55,16.5 C42.3571739,16.5 49.5,23.6428261 49.5,32.45 C49.5,41.2571739 42.3571739,48.4 33.55,48.4 C24.7428261,48.4 17.6,41.2571739 17.6,32.45 Z M41.525,32.45 L46.6647521,27.5360062 C45.7644004,25.0451788 43.8236675,22.4789077 41.5727883,20.9305556 L41.525,32.45 Z M39.7527778,19.737408 C37.7465925,18.6995093 36.3312574,18.2173531 33.6856553,18.2173531 C32.9879845,18.2173531 31.084632,18.4440328 31.0142249,18.451188 L39.7527778,26.6058283 L39.7527778,19.737408 Z M39.7527778,32.109188 L39.7527778,31.9047009 C39.6846154,30.4051282 39.0711538,28.9737179 38.1168803,27.9512821 L38.0487179,27.8831197 C37.0262821,26.9288462 35.5948718,26.2472222 34.0952991,26.2472222 L33.890812,26.2472222 C32.3230769,26.2472222 30.9598291,26.8606838 29.9373932,27.8831197 L29.8692308,27.9512821 C28.9149573,28.9737179 28.2333333,30.4051282 28.2333333,31.9047009 L28.2333333,32.109188 C28.2333333,33.6769231 28.8467949,35.0401709 29.8692308,36.0626068 L29.9373932,36.1307692 C30.9598291,37.0850427 32.3912393,37.7666667 33.890812,37.7666667 L34.0952991,37.7666667 C35.6630342,37.7666667 37.0262821,37.1532051 38.0487179,36.1307692 L38.1168803,36.0626068 C39.0711538,35.0401709 39.7527778,33.6087607 39.7527778,32.109188 Z M34.4361111,24.475 L29.101112,19.0898751 C26.5901896,19.9391966 23.5913992,22.3516962 22.0305556,24.475 L34.4361111,24.475 Z M20.9879403,26.2472222 C20.0750391,28.1119741 19.4752942,29.9269029 19.4752942,32.1498002 C19.4752942,33.4296224 19.862789,35.2446667 19.8692495,35.3038367 L29.3654582,26.2472222 L20.9879403,26.2472222 Z M26.4070112,32.0069444 L20.611906,37.4074532 C21.4970494,39.9303873 24.1941528,42.7949612 26.4070112,44.3632716 L26.4070112,32.0069444 Z M28.2333333,45.2206307 C29.981575,46.1352763 31.8642969,46.6277778 33.9487389,46.6277778 C34.5538995,46.6277778 35.9349544,46.3020577 36.758435,46.0397292 L28.5022936,38.0480961 L28.3678135,37.9073814 L28.3005734,37.837024 L28.2333333,37.7666667 L28.2333333,45.2206307 Z M32.9720792,39.5810663 L38.6009103,45.0355469 C41.1105337,44.2541766 43.7664367,41.5344921 45.3943006,39.5810663 L32.9720792,39.5810663 Z M38.9097415,37.837024 L46.386304,37.837024 C47.2974021,35.8710075 47.7277778,34.4938968 47.7277778,32.1498002 C47.7277778,31.469256 47.5819993,30.4381142 47.3523105,29.7916667 L38.9097415,37.837024 Z" id="形状" fill="#000000" fill-rule="evenodd"></path>
                            <circle id="Oval" fill="#000000" fill-rule="evenodd" cx="51.7" cy="51.7" r="4.4"></circle>
                        </g>
                    </g>
                </g>
            </g>
        </g>
    </g>
</svg>