<?xml version="1.0" encoding="UTF-8"?>
<svg width="611px" height="286px" viewBox="0 0 611 286" version="1.1" xmlns="http://www.w3.org/2000/svg" xmlns:xlink="http://www.w3.org/1999/xlink">
    <!-- Generator: Sketch 57.1 (83088) - https://sketch.com -->
    <title>编组 5</title>
    <desc>Created with Sketch.</desc>
    <g id="spec" stroke="none" stroke-width="1" fill="none" fill-rule="evenodd">
        <g id="C3_pc-spec-2560" transform="translate(-906.000000, -1583.000000)">
            <g id="编组-5" transform="translate(906.000000, 1584.000000)">
                <path d="M43.4120509,2.55073373 C28.8627171,2.55073373 18.1407872,6.24069582 11.2153303,13.5992484 C4.27839456,20.9699976 0.70377798,31.5903411 0.506596795,45.4764389 L0.506551648,241.74065 C0.34415431,253.824538 3.19991537,263.582979 9.06466951,271.034507 C14.9033535,278.45291 25.3033487,282.6141 40.2678972,283.485816 L570.830324,283.486128 C585.286652,282.974844 595.364097,278.517682 601.114178,270.134178 C606.907393,261.687785 609.882267,251.92316 610.039007,240.834677 L610.039007,53.2576699 L610.039479,40.6483547 C609.523804,28.7860267 605.671664,19.4336017 598.485457,12.5627088 C591.301521,5.69398597 581.733566,2.35507631 569.743561,2.55073373 L43.4120509,2.55073373 Z" id="矩形" stroke="#979797"></path>
                <path d="M13.043895,17.3562082 C10.1382344,20.6005094 8.07229149,24.3207227 6.84348447,28.5217477 C5.60576221,32.7532521 4.84250789,37.8876838 4.55673759,43.8996505 L4.55673759,239.73939 C4.55673759,252.31215 7.39607229,262.042217 13.0586554,268.946008 C18.6896089,275.811236 29.2158015,279.268266 44.6672718,279.271015 L563.089231,279.273393 C579.169673,280.203171 590.307956,276.968907 596.542456,269.616143 C602.8135,262.220281 605.963818,252.174996 605.98227,239.460873 L605.98227,43.6059117 C605.98227,31.5947225 602.383299,22.307371 595.190561,15.7077462 C587.992856,9.10356349 578.35712,6.08821535 566.228597,6.67036591 L41.5292467,6.67036591 C35.1706371,6.67036591 29.4439228,7.77720515 24.345224,9.98879618 C19.2423206,12.202211 15.4757444,14.6614257 13.043895,17.3562082 Z M13.043895,17.3562082 C13.0436894,17.356436 13.0434839,17.3566637 13.0432784,17.3568915 L13.044509,17.3555226 C13.0443043,17.3557511 13.0440997,17.3559796 13.043895,17.3562082 Z" id="矩形" stroke="#979797"></path>
                <path d="M596.340426,183.870926 L596.340426,170.373232 C596.424434,166.68873 594.870671,163.201225 591.679138,159.910717 C586.891838,154.974956 581.220783,149.405404 581.220783,143.592498 C581.220783,137.779591 584.709832,133.546695 589.725413,128.665325 C590.261159,128.143914 590.757889,127.63201 591.217825,127.126303 C595.063747,122.897656 596.340426,119.10241 596.340426,113.807098 C596.340426,109.854709 596.340426,86.8867831 596.340426,44.9033188 C596.340426,33.5787041 594.317114,25.9789494 590.270492,22.1040547 C584.203964,16.2917127 578.287109,14.212766 566.77813,14.212766 C559.105478,14.212766 386.876471,14.212766 50.0911097,14.212766 C46.0787939,14.212766 42.9831461,14.486308 40.8041662,15.0333922 C37.5356963,15.8518529 34.1926188,17.2320451 30.679005,20.7270876 C26.8130572,24.5726017 24.7024883,29.7635904 24.3472981,36.3000538 L24.3472981,250.017056 C24.227871,255.907509 25.6649435,260.791595 28.6585153,264.669315 C30.4599973,267.002862 33.4326613,269.240759 37.1481456,270.525714 C39.6251351,271.38235 42.6347407,271.810669 46.1769624,271.810669 L568.376158,271.810669 C577.273247,271.933025 583.883114,269.779775 588.205757,265.350919 C594.689721,258.707636 595.533377,250.969982 595.533377,243.33347 C595.533377,238.242462 595.802393,218.421614 596.340426,183.870926 Z" id="路径-21" stroke="#979797"></path>
                <path d="M282.432486,145.823314 L281.035056,145.823314 L281.035056,137.43617 C281.035056,136.73858 281.058059,136.078561 281.104065,135.456096 C280.983299,135.568784 280.848158,135.686836 280.698638,135.810256 C280.549118,135.933675 279.864786,136.456861 278.645623,137.379827 L277.886525,136.462231 L281.22483,134.055556 L282.432486,134.055556 L282.432486,145.823314 Z M287.375249,140.792638 C287.375249,138.479856 287.856869,136.750662 288.820123,135.605004 C289.783377,134.459345 291.208109,133.886525 293.094362,133.886525 C293.744199,133.886525 294.25601,133.937502 294.62981,134.039457 L294.62981,135.190476 C294.187,135.056324 293.68094,134.989249 293.111614,134.989249 C291.760183,134.989249 290.727935,135.382309 290.014839,136.16844 C289.301744,136.954571 288.910697,138.190093 288.841688,139.875042 L288.945201,139.875042 C289.577786,138.952076 290.578405,138.4906 291.947089,138.4906 C293.07999,138.4906 293.972784,138.809877 294.625497,139.448441 C295.278209,140.087005 295.60456,140.953614 295.60456,142.048294 C295.60456,143.271761 295.24658,144.233617 294.530609,144.933891 C293.814638,145.634164 292.847086,145.984296 291.627922,145.984296 C290.322497,145.984296 289.287374,145.526844 288.522522,144.611927 C287.757669,143.69701 287.375249,142.423927 287.375249,140.792638 Z M291.61067,144.849375 C292.42728,144.849375 293.061293,144.609247 293.512728,144.128982 C293.964164,143.648718 294.189878,142.955162 294.189878,142.048294 C294.189878,141.270213 293.979978,140.658488 293.560172,140.213104 C293.140365,139.767719 292.513541,139.54503 291.679679,139.54503 C291.16211,139.54503 290.687678,139.644301 290.25637,139.842846 C289.825063,140.041391 289.481459,140.315057 289.22555,140.663852 C288.969641,141.012648 288.841688,141.374853 288.841688,141.750478 C288.841688,142.303185 288.956702,142.818321 289.186733,143.295902 C289.416763,143.773484 289.743115,144.151787 290.165796,144.430823 C290.588478,144.709859 291.070098,144.849375 291.61067,144.849375 Z M297.778341,144.970111 C297.778341,144.610584 297.866039,144.338259 298.041437,144.15313 C298.216836,143.968 298.468428,143.875436 298.796222,143.875436 C299.129767,143.875436 299.389985,143.968 299.576885,144.15313 C299.763785,144.338259 299.857234,144.610584 299.857234,144.970111 C299.857234,145.318907 299.762348,145.587207 299.572572,145.77502 C299.382797,145.962833 299.124016,146.056738 298.796222,146.056738 C298.502933,146.056738 298.259966,145.972223 298.067316,145.803191 C297.874665,145.63416 297.778341,145.356469 297.778341,144.970111 Z M305.973148,138.635484 C307.301576,138.635484 308.346763,138.942687 309.10874,139.557103 C309.870717,140.17152 310.2517,141.012641 310.2517,142.080491 C310.2517,143.298591 309.836213,144.25374 309.005227,144.945964 C308.17424,145.638189 307.028416,145.984296 305.567721,145.984296 C304.14728,145.984296 303.063276,145.772339 302.315676,145.348418 L302.315676,144.060565 C302.71823,144.302039 303.21854,144.49119 303.81662,144.628025 C304.4147,144.764861 305.004145,144.833277 305.584973,144.833277 C306.597108,144.833277 307.383515,144.610588 307.944215,144.165203 C308.504915,143.719818 308.785261,143.075898 308.785261,142.233423 C308.785261,140.591402 307.707007,139.770404 305.550468,139.770404 C305.004145,139.770404 304.273808,139.848211 303.359436,140.003828 L302.61759,139.561128 L303.092026,134.055556 L309.36321,134.055556 L309.36321,135.287065 L304.316934,135.287065 L303.997768,138.820612 C304.659107,138.697193 305.31756,138.635484 305.973148,138.635484 Z M316.566014,145.984296 C315.197331,145.984296 314.137767,145.591236 313.387292,144.805105 C312.636816,144.018974 312.261584,142.90687 312.261584,141.468761 C312.261584,139.993088 312.642567,138.852813 313.404544,138.0479 C314.166521,137.242988 315.251963,136.840538 316.660902,136.840538 C317.115212,136.840538 317.569516,136.886149 318.023827,136.977373 C318.478138,137.068596 318.834681,137.175916 319.093465,137.299336 L318.653534,138.434256 C318.337241,138.316203 317.9922,138.218273 317.6184,138.140465 C317.2446,138.062657 316.913936,138.023753 316.626397,138.023753 C314.70564,138.023753 313.745275,139.166712 313.745275,141.452662 C313.745275,142.536611 313.979616,143.368341 314.448304,143.947878 C314.916991,144.527415 315.611387,144.817179 316.53151,144.817179 C317.319365,144.817179 318.127337,144.658882 318.955448,144.342283 L318.955448,145.525498 C318.322863,145.831365 317.526393,145.984296 316.566014,145.984296 Z M333.248916,145.823314 L333.248916,140.084318 C333.248916,139.381362 333.087897,138.854152 332.765854,138.502674 C332.443811,138.151195 331.943501,137.975459 331.26491,137.975459 C330.373541,137.975459 329.715088,138.214248 329.289531,138.691827 C328.863974,139.169408 328.651198,139.904551 328.651198,140.897276 L328.651198,145.823314 L327.219264,145.823314 L327.219264,140.084318 C327.219264,139.381362 327.058244,138.854152 326.736201,138.502674 C326.414158,138.151195 325.910973,137.975459 325.226632,137.975459 C324.329511,137.975459 323.672496,138.226319 323.255565,138.728048 C322.838634,139.229777 322.630172,140.052116 322.630172,141.195092 L322.630172,145.823314 L321.198237,145.823314 L321.198237,137.00152 L322.362762,137.00152 L322.595667,138.208882 L322.664676,138.208882 C322.934962,137.779596 323.315945,137.444221 323.807636,137.202747 C324.299327,136.961273 324.849955,136.840538 325.459537,136.840538 C326.937485,136.840538 327.9036,137.339576 328.35791,138.337667 L328.426919,138.337667 C328.708707,137.876184 329.117006,137.511296 329.651827,137.242992 C330.186649,136.974688 330.796222,136.840538 331.480563,136.840538 C332.550207,136.840538 333.350989,137.096765 333.882936,137.609225 C334.414882,138.121686 334.680851,138.941343 334.680851,140.06822 L334.680851,145.823314 L333.248916,145.823314 Z" id="16.5cm" fill="#979797" fill-rule="nonzero"></path>
                <circle id="椭圆形" stroke="#979797" cx="592.283688" cy="142" r="4.05673759"></circle>
                <polyline id="路径-23" stroke="#979797" points="377.276596 281.957447 377.276596 282.920181 378.428592 283.985816 421.177558 283.985816 421.900709 283.244248 421.900709 281.957447"></polyline>
                <polyline id="路径-24" stroke="#979797" points="359.021277 2.04255319 359.021277 0.866692564 359.817136 0.0141843972 396.813583 0.0141843972 397.560284 0.866692564 397.560284 1.5729191"></polyline>
                <polyline id="路径-24" stroke="#979797" points="405.673759 2.04255319 405.673759 0.866692564 406.469618 0.0141843972 443.466065 0.0141843972 444.212766 0.866692564 444.212766 1.5729191"></polyline>
                <path d="M589.793754,22.3262411 L351.635434,125.498125" id="路径-25" stroke="#979797"></path>
                <path d="M263.380467,160.626424 L28.3971631,263.577355" id="路径-25" stroke="#979797"></path>
            </g>
        </g>
    </g>
</svg>