<?xml version="1.0" encoding="UTF-8"?>
<svg width="680px" height="372px" viewBox="0 0 680 372" version="1.1" xmlns="http://www.w3.org/2000/svg" xmlns:xlink="http://www.w3.org/1999/xlink">
    <!-- Generator: Sketch 57.1 (83088) - https://sketch.com -->
    <title>编组 2</title>
    <desc>Created with Sketch.</desc>
    <g id="spec" stroke="none" stroke-width="1" fill="none" fill-rule="evenodd">
        <g id="C3_pc-spec-2560" transform="translate(-1197.000000, -1038.000000)">
            <g id="编组-2" transform="translate(1197.000000, 1039.000000)">
                <g id="编组-10">
                    <g id="编组" transform="translate(44.000000, 15.000000)" stroke="#979797">
                        <path d="M12.6840304,124.276258 L404.021069,320.690056 C404.021069,320.690056 429.904405,336.975388 450.501903,320.93132 C471.096317,304.890344 546.476559,245.700196 546.476559,245.700196 C546.476559,245.700196 574.019043,220.982989 539.987993,200.286851 C512.642879,186.686356 153.656155,6.78059708 153.656155,6.78059708 C153.656155,6.78059708 132.418511,-10.1035449 102.893066,12.8876953 C85.5402597,26.4001946 56.4630366,48.8119612 35.9681277,65.152832 C21.5913696,76.6156176 11.7650224,85.1883663 11.7650224,85.1883663 C11.7650224,85.1883663 -15.3087062,106.84956 12.6840304,124.276258 Z" id="Stroke-1"></path>
                        <path d="M87.2775274,35.0382786 L119.648747,9.66524078 C119.648747,9.66524078 132.705994,-2.20259295 154.426875,9.8482045 C176.540154,21.3315043 518.874222,192.703395 518.874222,192.703395 C518.874222,192.703395 544.583959,203.262573 526.762331,215.558356 C510.213677,228.536377 429.052352,292.074408 429.052352,292.074408 C429.052352,292.074408 418.037424,302.856863 391.397675,288.681826 L32.0978374,108.406734 C30.5869539,107.668677 30.8823242,107.914551 26.079834,105.524414 C21.2773437,103.134277 6.31703593,95.9527959 24.7905992,84.2431173 C41.6883944,71.0852342 56.228717,59.468588 56.228717,59.468588 C56.228717,59.468588 61.6975591,55.7876058 71.8720773,55.8992447 C78.8394439,55.7534939 87.4938093,53.7222864 82.636736,44.1895661 C82.4729797,39.6712923 82.8622871,38.499084 87.2775274,35.0382786 Z" id="Stroke-3"></path>
                        <path d="M44.4732083,61.1151194 C44.1767489,61.1367447 43.8895539,61.1985311 43.6548568,61.3869797 C24.6373231,76.6422827 14.5274359,84.8891033 13.3251953,86.1274414 C11.5218345,87.9849486 0.841064453,99.3095703 27.0622559,110.90332 C28.1705017,111.393333 27.6516922,111.278297 28.8812966,111.783079 C56.8812696,125.425523 397.476498,296.295991 399.415405,297.046593 C409.401367,301.690918 432.810059,313.938965 451.817692,296.895216 C480.120301,274.778765 544.115387,224.762651 544.115387,224.762651 C544.115387,224.762651 564.129484,211.348818 539.041607,199.538342 C533.873092,196.714541 515.520922,188.193791 488.006836,174.334473 C381.359803,120.614527 151.20477,5.18604521 151.20477,5.18604521 C151.20477,5.18604521 131.635361,-5.83665347 113.078855,7.42580321 C95.16159,21.4945728 84.7793347,29.2302335 84.7793347,29.2302335 C84.7793347,29.2302335 85.4772495,29.7523288 84.6033119,30.4690514 C83.7293743,31.1857739 46.1099113,60.5219697 46.1099113,60.5219697 C46.1099113,60.5219697 45.3162648,61.053333 44.4732083,61.1151194 Z" id="Stroke-5"></path>
                        <path d="M8.13862051,90.4914597 C8.13862051,90.4914597 3.14556108,98.5502939 15.0079346,106.553486 C25.1298351,112.80086 27.7127713,113.635492 27.7127713,113.635492 L399.377846,299.637836 C399.377846,299.637836 432.991211,319.086426 452.669035,298.494081 C468.521535,286.308456 542.355862,228.542658 542.355862,228.542658 C542.355862,228.542658 551.394595,222.397295 552.807958,217.540974 C554.221321,212.678471 553.478565,210.032943 545.584717,203.801025 C537.690869,197.569108 537.170657,198.864662 536.149902,198.210449 C535.88099,198.0381 519.966143,190.17082 480.306641,170.5 C460.253533,160.553807 417.989373,139.238302 353.51416,106.553486 L153.656155,6.78059708 C153.656155,6.78059708 142.361069,-3.07714203 122.398089,1.89355431 C114.161701,4.19342873 107.462855,9.15194937 107.462855,9.15194937 L83.4881458,28.0455414 L43.1085521,59.5297094 C43.1085521,59.5297094 10.0457347,84.1111629 8.13862051,90.4914597 Z" id="Stroke-7"></path>
                        <path d="M506.422806,269.401897 L494.997586,278.540384 C494.997586,278.540384 491.871142,280.454968 491.855835,281.927002 C491.841548,282.906274 492.710241,283.369653 494.461914,283.317139 C495.279704,283.192952 496.094401,282.882243 496.906006,282.38501 C498.123413,281.63916 504.417575,276.205757 504.417575,276.205757 C504.417575,276.205757 506.634044,273.73674 507.050397,272.286584 C507.46675,270.836427 507.540224,268.948723 506.422806,269.401897 Z" id="Stroke-9"></path>
                        <path d="M481.883314,292.7789 C481.473547,293.744923 480.816322,294.37409 480.419859,294.190351 C480.023395,294.003828 480.0367,293.071212 480.449128,292.107974 C480.861556,291.144735 481.51612,290.512784 481.915244,290.699307 C482.309047,290.883046 482.295743,291.815662 481.883314,292.7789 Z" id="Stroke-11"></path>
                        <path d="M477.448781,295.448038 C477.036353,296.411483 476.381789,297.040785 475.985326,296.857006 C475.588862,296.670443 475.602166,295.737629 476.014595,294.774184 C476.427023,293.810739 477.081587,293.181437 477.47805,293.365216 C477.874514,293.548994 477.861209,294.481809 477.448781,295.448038 Z" id="Stroke-13"></path>
                        <path d="M527.13349,253.341647 C526.335848,253.478906 524.993997,255.069869 524.791252,255.72809 C524.588507,256.386312 523.838884,258.002231 524.369756,258.573105 C524.719224,258.791473 525.10604,258.729082 526.485239,257.256662 C527.859103,255.787361 528.128541,253.166953 527.13349,253.341647 Z" id="Stroke-15"></path>
                        <path d="M533.341901,248.786101 C532.54401,248.923372 531.201739,250.514468 530.998931,251.169625 C530.796122,251.827902 530.046265,253.447076 530.579971,254.017999 C530.929549,254.236384 531.313817,254.170869 532.693448,252.701445 C534.067742,251.228901 534.337264,248.611393 533.341901,248.786101 Z" id="Stroke-17"></path>
                        <path d="M538.661891,244.452768 C537.864347,244.590039 536.522659,246.181135 536.319939,246.836292 C536.119886,247.494569 535.367687,249.110623 535.901161,249.684665 C536.250587,249.903051 536.634688,249.837535 538.013719,248.368111 C539.390083,246.895568 539.659488,244.278059 538.661891,244.452768 Z" id="Stroke-19"></path>
                        <path d="M543.985546,240.8972 C543.187866,241.037545 541.845948,242.625006 541.643193,243.283069 C541.440438,243.941132 540.690778,245.556661 541.221676,246.130517 C541.571162,246.345713 541.957997,246.283337 543.334596,244.811272 C544.711196,243.342325 544.980647,240.722548 543.985546,240.8972 Z" id="Stroke-21"></path>
                        <path d="M466.025608,300.502691 C465.004251,300.857986 463.199645,301.794111 461.890052,306.90109 C461.119334,309.80524 460.712044,311.881399 462.297341,310.83714 C463.879505,309.792882 466.620878,306.984507 467.225547,305.875369 C467.827082,304.76932 469.866664,299.856981 466.025608,300.502691 Z" id="Stroke-23"></path>
                        <path d="M76.2588039,49.5172199 C76.0278192,50.9504307 73.6656154,51.8268943 70.9800331,51.4796163 C68.2944507,51.1323383 66.3079821,49.6908589 66.5389668,48.2604042 C66.7668717,46.8299495 69.1321553,45.9507297 71.8177376,46.2980077 C74.50332,46.6452858 76.4897886,48.0867652 76.2588039,49.5172199 Z" id="Stroke-25"></path>
                        <path d="M41.0419407,129.372307 L78.1256255,147.73527 C78.1256255,147.73527 80.9398888,148.914571 80.6969087,152.35496 C80.530821,153.759761 80.6507732,156.020849 75.9818644,153.598254 C71.319107,151.178707 39.3287772,135.466885 39.3287772,135.466885 C39.3287772,135.466885 36.219247,133.522714 36.3699562,130.825864 C36.6713745,129.76236 37.7755499,128.043689 41.0419407,129.372307 Z" id="Stroke-27"></path>
                        <path d="M84.6742192,156.297549 C84.181966,156.632529 83.4023434,156.375451 82.9313768,155.721071 C82.4577494,155.064094 82.4710536,154.261699 82.9579851,153.924122 C83.4475775,153.589142 84.2272001,153.848817 84.7008275,154.503197 C85.171794,155.157577 85.1638115,155.962569 84.6742192,156.297549 Z" id="Stroke-29"></path>
                        <path d="M109.562202,167.157324 L132.915081,178.977188 C132.915081,178.977188 133.91041,179.57907 133.928344,180.416865 C133.847642,180.967329 133.961223,181.844443 132.194737,180.949182 C130.428252,180.050896 109.036142,169.192832 109.036142,169.192832 C109.036142,169.192832 107.753871,168.058634 108.378567,167.493046 C109.003263,166.927459 109.562202,167.157324 109.562202,167.157324 Z" id="Stroke-31"></path>
                        <path d="M110.548304,165.417326 L133.760381,177.216043 C133.760381,177.216043 136.019325,178.261422 135.664391,180.101532 C135.375631,181.027701 134.87331,181.700167 133.345289,181.113288 C131.865395,180.407199 108.993212,168.535122 108.993212,168.535122 C108.993212,168.535122 107.759967,167.32774 108.382605,166.147868 C109.005244,164.967997 110.548304,165.417326 110.548304,165.417326 Z" id="Stroke-33"></path>
                        <path d="M142.378641,184.046212 L165.732066,195.869027 C165.732066,195.869027 166.724302,196.46788 166.745223,197.308694 C166.664529,197.856131 166.778098,198.733239 165.011797,197.837984 C163.245497,196.939704 141.855624,186.084733 141.855624,186.084733 C141.855624,186.084733 140.570499,184.947517 141.19513,184.381933 C141.822749,183.816349 142.378641,184.046212 142.378641,184.046212 Z" id="Stroke-35"></path>
                        <path d="M143.365474,183.195104 L166.577283,194.996837 C166.577283,194.996837 168.8362,196.042213 168.48127,197.882317 C168.189506,198.805426 167.690198,199.47789 166.162195,198.891012 C164.682318,198.184926 141.807392,186.315945 141.807392,186.315945 C141.807392,186.315945 140.577169,185.105511 141.1998,183.925643 C141.822431,182.745776 143.365474,183.195104 143.365474,183.195104 Z" id="Stroke-37"></path>
                    </g>
                    <g id="编组-9">
                        <path d="M11.0162584,115.811594 L158.138794,3.56481917" id="路径-2" stroke="#979797" opacity="0.400000006"></path>
                        <path d="M48.9274468,36.7555942 L50.2350213,36.7555942 L52.4664255,45.2284058 L52.5232766,45.2284058 L54.8399574,36.7555942 L56.1048936,36.7555942 L58.4073617,45.2284058 L58.4642128,45.2284058 L60.695617,36.7555942 L62.0031915,36.7555942 L59.0895745,46.8550725 L57.7962128,46.8550725 L55.4937447,38.4388406 L55.4511064,38.4388406 L53.1344255,46.8550725 L51.8410638,46.8550725 L48.9274468,36.7555942 Z M63.8934894,36.7838841 C64.1351064,36.7838841 64.3340851,36.8546087 64.5046383,37.0243478 C64.6751915,37.1657971 64.7604681,37.3638261 64.7604681,37.6184348 C64.7604681,37.8588986 64.6751915,38.0569275 64.5046383,38.2266667 C64.3340851,38.3822609 64.1351064,38.4671304 63.8934894,38.4671304 C63.6518723,38.4671304 63.4528936,38.3822609 63.2823404,38.2266667 C63.1117872,38.0569275 63.0407234,37.8588986 63.0407234,37.6184348 C63.0407234,37.3638261 63.1117872,37.1657971 63.2823404,37.0243478 C63.4528936,36.8546087 63.6518723,36.7838841 63.8934894,36.7838841 Z M63.3249787,39.5421449 L64.462,39.5421449 L64.462,46.8550725 L63.3249787,46.8550725 L63.3249787,39.5421449 Z M72.0231915,36.5575652 L73.1602128,36.5575652 L73.1602128,46.8550725 L72.0942553,46.8550725 L72.0942553,45.6527536 C71.5825957,46.5863188 70.7582553,47.0531014 69.6496596,47.0531014 C68.5694894,47.0531014 67.7309362,46.6570435 67.134,45.8932174 C66.5797021,45.185971 66.3096596,44.2806957 66.3096596,43.1773913 C66.3096596,42.1023768 66.5797021,41.2253913 67.134,40.5181449 C67.7309362,39.726029 68.5410638,39.3441159 69.5928085,39.3441159 C70.6445532,39.3441159 71.4546809,39.8533333 72.0231915,40.885913 L72.0231915,36.5575652 Z M69.8344255,40.2776812 C69.0242979,40.2776812 68.4131489,40.5605797 68.0151915,41.1263768 C67.6456596,41.6214493 67.4751064,42.3004058 67.4751064,43.1773913 C67.4751064,44.0543768 67.6456596,44.7474783 68.0009787,45.2566957 C68.3989362,45.8224928 68.9958723,46.1195362 69.7917872,46.1195362 C70.5308511,46.1195362 71.0993617,45.8366377 71.5115319,45.2708406 C71.8668511,44.7616232 72.051617,44.0968116 72.051617,43.2764058 L72.051617,43.1349565 C72.051617,42.2862609 71.8384255,41.5931594 71.4404681,41.0697971 C71.0282979,40.5322899 70.4882128,40.2776812 69.8344255,40.2776812 Z M76.8839574,37.179942 L76.8839574,39.5421449 L78.7031915,39.5421449 L78.7031915,40.4898551 L76.8839574,40.4898551 L76.8839574,45.1435362 C76.8839574,45.4122899 76.9265957,45.6103188 77.0402979,45.7234783 C77.1397872,45.8366377 77.3245532,45.9073623 77.580383,45.9073623 L78.5184255,45.9073623 L78.5184255,46.8550725 L77.4098298,46.8550725 C76.8128936,46.8550725 76.3722979,46.6994783 76.1164681,46.3882899 C75.8748511,46.1053913 75.7611489,45.6951884 75.7611489,45.1435362 L75.7611489,40.4898551 L74.2830213,40.4898551 L74.2830213,39.5421449 L75.7611489,39.5421449 L75.7611489,37.6467246 L76.8839574,37.179942 Z M79.9681277,36.5575652 L81.1051489,36.5575652 L81.1051489,40.7444638 C81.3609787,40.2776812 81.7020851,39.924058 82.1284681,39.6835942 C82.5264255,39.4572754 82.9670213,39.3441159 83.4644681,39.3441159 C84.317234,39.3441159 84.985234,39.5845797 85.4400426,40.0937971 C85.8948511,40.5888696 86.1222553,41.3102609 86.1222553,42.2438261 L86.1222553,46.8550725 L84.985234,46.8550725 L84.985234,42.4135652 C84.985234,41.7346087 84.8146809,41.2112464 84.502,40.8434783 C84.1608936,40.4757101 83.6918723,40.2918261 83.0807234,40.2918261 C82.5122128,40.2918261 82.0431915,40.5181449 81.6736596,40.9707826 C81.2899149,41.4234203 81.1051489,42.0033623 81.1051489,42.6823188 L81.1051489,46.8550725 L79.9681277,46.8550725 L79.9681277,36.5575652 Z" id="Width" fill="#9B9B9B" fill-rule="nonzero"></path>
                        <path d="M149.234043,5.02528775e-14 L166.689332,7.12963833" id="路径-8" stroke="#979797" opacity="0.400000006"></path>
                        <path d="M1.4990373e-13,110.507246 L23.0068842,121.36133" id="路径-8备份" stroke="#979797" opacity="0.400000006"></path>
                    </g>
                    <g id="编组-5" transform="translate(10.000000, 133.000000)" opacity="0.400000006" stroke="#979797">
                        <path d="M10.7588801,7.10447761 L444.702586,229.444517" id="路径-22"></path>
                        <path d="M433.336927,237.408592 L453.923645,223.015905" id="路径-26"></path>
                        <path d="M2.01616501e-13,14.3926871 L20.5867175,1.89301311e-14" id="路径-26备份"></path>
                    </g>
                    <path d="M175,262.193617 L176.160534,262.193617 L176.160534,271.08617 L182.077825,271.08617 L182.077825,272.068085 L175,272.068085 L175,262.193617 Z M186.333116,264.724468 C187.522305,264.724468 188.424943,265.111702 189.026701,265.88617 C189.571149,266.57766 189.857701,267.559574 189.886356,268.804255 L184.040703,268.804255 C184.098014,269.606383 184.312927,270.228723 184.7141,270.671277 C185.115272,271.11383 185.674048,271.335106 186.376099,271.335106 C186.977857,271.335106 187.479323,271.182979 187.85184,270.892553 C188.167047,270.643617 188.410615,270.270213 188.596874,269.77234 L189.74308,269.77234 C189.571149,270.46383 189.241615,271.017021 188.74015,271.459574 C188.124064,271.985106 187.336047,272.261702 186.376099,272.261702 C185.315858,272.261702 184.456203,271.915957 183.82579,271.252128 C183.166721,270.560638 182.851514,269.647872 182.851514,268.48617 C182.851514,267.435106 183.152393,266.55 183.782807,265.844681 C184.41322,265.097872 185.258548,264.724468 186.333116,264.724468 Z M186.361771,265.651064 C185.702703,265.651064 185.172582,265.858511 184.77141,266.273404 C184.370238,266.688298 184.140996,267.241489 184.069359,267.946809 L188.697167,267.946809 C188.553891,266.411702 187.765874,265.651064 186.361771,265.651064 Z M194.700423,264.724468 C196.534354,264.724468 197.465646,265.706383 197.465646,267.670213 L197.465646,272.068085 L196.31944,272.068085 L196.31944,267.753191 C196.31944,266.356383 195.660371,265.664894 194.370889,265.664894 C193.855096,265.664894 193.410941,265.844681 193.038424,266.204255 C192.637252,266.591489 192.422338,267.103191 192.379355,267.753191 L192.379355,272.068085 L191.233149,272.068085 L191.233149,264.918085 L192.379355,264.918085 L192.379355,265.969149 C192.637252,265.568085 192.966786,265.26383 193.367958,265.056383 C193.769131,264.835106 194.213286,264.724468 194.700423,264.724468 Z M202.294041,264.724468 C203.411592,264.724468 204.242592,265.194681 204.78704,266.148936 L204.78704,264.918085 L205.933246,264.918085 L205.933246,271.570213 C205.933246,273.852128 204.801368,275 202.551937,275 C201.549007,275 200.775317,274.806383 200.259525,274.419149 C199.729404,274.031915 199.39987,273.451064 199.270922,272.676596 L200.417128,272.676596 C200.503093,273.160638 200.718007,273.520213 201.047542,273.741489 C201.377076,273.976596 201.878541,274.101064 202.551937,274.101064 C204.042006,274.101064 204.78704,273.298936 204.78704,271.72234 L204.78704,270.46383 C204.242592,271.418085 203.411592,271.902128 202.294041,271.902128 C201.262455,271.902128 200.445783,271.556383 199.844025,270.878723 C199.242266,270.214894 198.955715,269.371277 198.955715,268.334043 C198.955715,267.282979 199.242266,266.439362 199.844025,265.775532 C200.445783,265.070213 201.262455,264.724468 202.294041,264.724468 Z M202.465972,265.637234 C201.720938,265.637234 201.147835,265.88617 200.732335,266.411702 C200.331162,266.881915 200.130576,267.531915 200.130576,268.334043 C200.130576,269.080851 200.302507,269.703191 200.660697,270.173404 C201.061869,270.698936 201.6493,270.975532 202.451644,270.975532 C203.196679,270.975532 203.769782,270.726596 204.199609,270.228723 C204.600782,269.744681 204.801368,269.108511 204.801368,268.334043 C204.801368,267.531915 204.600782,266.881915 204.199609,266.411702 C203.769782,265.88617 203.196679,265.637234 202.465972,265.637234 Z M209.687073,262.608511 L209.687073,264.918085 L211.521003,264.918085 L211.521003,265.844681 L209.687073,265.844681 L209.687073,270.394681 C209.687073,270.657447 209.730055,270.851064 209.844676,270.961702 C209.944969,271.07234 210.131228,271.141489 210.389124,271.141489 L211.334744,271.141489 L211.334744,272.068085 L210.217193,272.068085 C209.615435,272.068085 209.17128,271.915957 208.913383,271.611702 C208.669814,271.335106 208.555194,270.934043 208.555194,270.394681 L208.555194,265.844681 L207.065125,265.844681 L207.065125,264.918085 L208.555194,264.918085 L208.555194,263.064894 L209.687073,262.608511 Z M212.796158,262 L213.942364,262 L213.942364,266.093617 C214.200261,265.637234 214.544122,265.291489 214.97395,265.056383 C215.375122,264.835106 215.819277,264.724468 216.320742,264.724468 C217.180397,264.724468 217.853794,264.959574 218.312276,265.457447 C218.770759,265.941489 219,266.646809 219,267.559574 L219,272.068085 L217.853794,272.068085 L217.853794,267.725532 C217.853794,267.061702 217.681863,266.55 217.366656,266.190426 C217.022794,265.830851 216.549984,265.651064 215.933898,265.651064 C215.360795,265.651064 214.887984,265.87234 214.515467,266.314894 C214.128623,266.757447 213.942364,267.324468 213.942364,267.988298 L213.942364,272.068085 L212.796158,272.068085 L212.796158,262 Z" id="Length" fill="#9B9B9B" fill-rule="nonzero"></path>
                    <g id="编组-7" transform="translate(608.000000, 221.000000)" opacity="0.400000006" stroke="#979797">
                        <path d="M0,38.4264239 L28.3281025,38.4264239" id="路径-27备份"></path>
                        <path d="M0,0.444444444 L28.3281025,0.444444444" id="路径-27"></path>
                        <path d="M14.2857143,0.204201644 L14.7321429,38.8708683" id="路径-27备份-2"></path>
                    </g>
                </g>
                <path d="M644.768555,245.636719 C646.450195,245.636719 647.73877,245.200358 648.634277,244.327637 C649.529785,243.454915 649.977539,242.193685 649.977539,240.543945 C649.977539,238.999023 649.546875,237.795898 648.685547,236.93457 C647.824219,236.073242 646.616536,235.642578 645.0625,235.642578 L645.0625,235.642578 L642,235.642578 L642,245.636719 L644.768555,245.636719 Z M644.577148,244.631836 L643.162109,244.631836 L643.162109,236.647461 L644.850586,236.647461 C646.140299,236.647461 647.112142,236.977865 647.766113,237.638672 C648.420085,238.299479 648.74707,239.281576 648.74707,240.584961 C648.74707,241.920247 648.398438,242.928548 647.701172,243.609863 C647.003906,244.291178 645.962565,244.631836 644.577148,244.631836 L644.577148,244.631836 Z M655.200195,245.773438 C655.706055,245.773438 656.137858,245.73584 656.495605,245.660645 C656.853353,245.585449 657.232747,245.461263 657.633789,245.288086 L657.633789,245.288086 L657.633789,244.276367 C656.845378,244.613607 656.047852,244.782227 655.241211,244.782227 C654.475586,244.782227 653.881999,244.554362 653.460449,244.098633 C653.0389,243.642904 652.816732,242.97526 652.793945,242.095703 L652.793945,242.095703 L657.955078,242.095703 L657.955078,241.37793 C657.955078,240.366211 657.681641,239.551595 657.134766,238.934082 C656.587891,238.316569 655.845052,238.007812 654.90625,238.007812 C653.903646,238.007812 653.10498,238.363281 652.510254,239.074219 C651.915527,239.785156 651.618164,240.744466 651.618164,241.952148 C651.618164,243.150716 651.938314,244.08724 652.578613,244.761719 C653.218913,245.436198 654.092773,245.773438 655.200195,245.773438 Z M656.738281,241.172852 L652.821289,241.172852 C652.885091,240.480143 653.095866,239.937826 653.453613,239.545898 C653.811361,239.153971 654.291016,238.958008 654.892578,238.958008 C655.485026,238.958008 655.940755,239.148275 656.259766,239.528809 C656.578776,239.909342 656.738281,240.457357 656.738281,241.172852 L656.738281,241.172852 Z M661.024414,249 L661.024414,245.916992 C661.024414,245.525065 660.99707,245.110352 660.942383,244.672852 L660.942383,244.672852 L661.024414,244.672852 C661.297852,245.046549 661.63623,245.323405 662.039551,245.503418 C662.442871,245.683431 662.888346,245.773438 663.375977,245.773438 C664.351237,245.773438 665.113444,245.43278 665.662598,244.751465 C666.211751,244.07015 666.486328,243.114258 666.486328,241.883789 C666.486328,240.657878 666.216309,239.705404 665.67627,239.026367 C665.13623,238.347331 664.369466,238.007812 663.375977,238.007812 C662.874674,238.007812 662.430339,238.098958 662.042969,238.28125 C661.655599,238.463542 661.316081,238.759766 661.024414,239.169922 L661.024414,239.169922 L660.969727,239.169922 L660.8125,238.144531 L659.889648,238.144531 L659.889648,249 L661.024414,249 Z M663.239258,244.823242 C662.464518,244.823242 661.901693,244.596517 661.550781,244.143066 C661.19987,243.689616 661.024414,242.936523 661.024414,241.883789 L661.024414,241.883789 L661.024414,241.630859 C661.033529,240.705729 661.208984,240.03125 661.550781,239.607422 C661.892578,239.183594 662.446289,238.97168 663.211914,238.97168 C663.877279,238.97168 664.393392,239.221191 664.760254,239.720215 C665.127116,240.219238 665.310547,240.935872 665.310547,241.870117 C665.310547,242.79069 665.127116,243.513021 664.760254,244.037109 C664.393392,244.561198 663.886393,244.823242 663.239258,244.823242 Z M670.724609,245.773438 C670.916016,245.773438 671.131348,245.754069 671.370605,245.715332 C671.609863,245.676595 671.791016,245.627604 671.914062,245.568359 L671.914062,245.568359 L671.914062,244.700195 C671.804688,244.732096 671.656576,244.762858 671.469727,244.79248 C671.282878,244.822103 671.089193,244.836914 670.888672,244.836914 C670.514974,244.836914 670.221029,244.716146 670.006836,244.474609 C669.792643,244.233073 669.685547,243.886719 669.685547,243.435547 L669.685547,243.435547 L669.685547,239.026367 L671.859375,239.026367 L671.859375,238.144531 L669.685547,238.144531 L669.685547,236.408203 L669.029297,236.408203 L668.550781,238.007812 L667.477539,238.479492 L667.477539,239.026367 L668.550781,239.026367 L668.550781,243.483398 C668.550781,245.010091 669.275391,245.773438 670.724609,245.773438 Z M674.545898,245.636719 L674.545898,241.719727 C674.545898,240.744466 674.727051,240.042643 675.089355,239.614258 C675.45166,239.185872 676.027018,238.97168 676.81543,238.97168 C677.407878,238.97168 677.843099,239.12207 678.121094,239.422852 C678.399089,239.723633 678.538086,240.179362 678.538086,240.790039 L678.538086,240.790039 L678.538086,245.636719 L679.672852,245.636719 L679.672852,240.749023 C679.672852,239.801107 679.443848,239.109538 678.98584,238.674316 C678.527832,238.239095 677.84082,238.021484 676.924805,238.021484 C676.396159,238.021484 675.925618,238.125163 675.513184,238.33252 C675.100749,238.539876 674.782878,238.823568 674.55957,239.183594 L674.55957,239.183594 L674.491211,239.183594 C674.527669,238.928385 674.545898,238.607096 674.545898,238.219727 L674.545898,238.219727 L674.545898,235 L673.411133,235 L673.411133,245.636719 L674.545898,245.636719 Z" id="Depth" fill="#9B9B9B" fill-rule="nonzero"></path>
            </g>
        </g>
    </g>
</svg>