<?xml version="1.0" encoding="UTF-8"?>
<svg width="164px" height="29px" viewBox="0 0 164 29" version="1.1" xmlns="http://www.w3.org/2000/svg" xmlns:xlink="http://www.w3.org/1999/xlink">
    <!-- Generator: Sketch 57.1 (83088) - https://sketch.com -->
    <title>logo</title>
    <desc>Created with Sketch.</desc>
    <defs>
        <polygon id="path-1" points="0.068688 0.0793152 13.157856 0.0793152 13.157856 20.0791872 0.068688 20.0791872"></polygon>
        <polygon id="path-3" points="0.279072 0.0883872 19.724256 0.0883872 19.724256 20.736 0.279072 20.736"></polygon>
        <polygon id="path-5" points="0 28.512 162.432 28.512 162.432 0 0 0"></polygon>
    </defs>
    <g id="realme-C3" stroke="none" stroke-width="1" fill="none" fill-rule="evenodd">
        <g id="H5_realme-C3" transform="translate(-97.000000, -180.000000)">
            <g id="01_kv" transform="translate(0.000000, 120.000000)">
                <g id="01_txt" transform="translate(46.000000, 60.000000)">
                    <g id="logo" transform="translate(51.840000, 0.000000)">
                        <path d="M145.640781,13.6635141 L147.744,12.4396759 C146.056444,9.56051275 142.859963,7.776 139.375783,7.776 C133.556505,7.776 129.168,12.1399605 129.168,17.9284306 C129.168,23.7151783 133.556505,28.08 139.375783,28.08 C142.877998,28.08 146.075338,26.2851522 147.744,23.3896253 L145.640781,22.1916247 C144.468509,24.3335567 142.021768,25.7132814 139.375783,25.7132814 C134.845574,25.7132814 131.556343,22.4388038 131.556343,17.9284306 C131.556343,13.4008324 134.845574,10.1142973 139.375783,10.1142973 C142.069002,10.1142973 144.459062,11.4724907 145.640781,13.6635141" id="Fill-1" fill="#231916"></path>
                        <g id="编组" transform="translate(149.472000, 8.208000)">
                            <mask id="mask-2" fill="white">
                                <use xlink:href="#path-1"></use>
                            </mask>
                            <g id="Clip-4"></g>
                            <path d="M8.084016,8.2104192 L7.924176,8.1801792 L12.308112,2.2669632 L12.308112,0.0793152 L0.610416,0.0793152 L0.610416,2.3404032 L9.52344,2.3404032 L9.40248,2.5028352 L4.855248,8.6527872 L5.83416,10.1621952 L6.458832,10.1621952 C9.050832,10.1621952 10.726992,11.6482752 10.726992,13.9482432 C10.726992,16.2300672 9.050832,17.7049152 6.458832,17.7049152 C4.256496,17.7049152 2.711664,16.7476032 2.094768,15.0057792 L0.068688,16.2015552 C1.038096,18.6328512 3.420144,20.0791872 6.458832,20.0791872 C9.685872,20.0791872 13.158288,18.1619712 13.158288,13.9482432 C13.158288,10.4213952 10.536912,8.6717952 8.084016,8.2104192" id="Fill-3" fill="#231916" mask="url(#mask-2)"></path>
                        </g>
                        <path d="M14.7924826,16.3119541 C15.5166906,12.4873469 18.6962677,10.1924091 22.1178256,10.1924091 C25.6191766,10.1924091 28.4362159,12.5272589 28.9193104,16.3119541 L14.7924826,16.3119541 Z M22.1984859,7.776 C16.1212092,7.776 12.096,12.3667434 12.096,18.1643898 C12.096,23.8822123 15.8393318,28.512 22.1178256,28.512 C26.2635917,28.512 29.2011878,26.6196524 30.9314814,23.6392699 L28.6781968,22.1902921 C27.3095737,24.5260096 25.378063,26.0955909 22.1178256,26.0955909 C17.7708425,26.0955909 14.7525861,22.7134859 14.7118223,18.6077597 L31.536,18.6077597 L31.536,17.8824031 C31.4952362,11.4808713 27.3503375,7.776 22.1984859,7.776 L22.1984859,7.776 Z" id="Fill-5" fill="#231916"></path>
                        <polygon id="Fill-7" fill="#231916" points="0 8.208 0 28.08 2.62061174 28.08 2.62061174 10.5924344 12.096 10.5924344 12.096 8.208"></polygon>
                        <path d="M99.0326029,16.3119541 C99.7568433,12.4873469 102.936562,10.1924091 106.357405,10.1924091 C109.858913,10.1924091 112.676078,12.5272589 113.160061,16.3119541 L99.0326029,16.3119541 Z M115.776,17.8824031 C115.736102,11.4808713 111.590151,7.776 106.438069,7.776 C100.360521,7.776 96.336,12.3667434 96.336,18.1643898 C96.336,23.8822123 100.078632,28.512 106.357405,28.512 C110.503356,28.512 113.441084,26.6196524 115.172322,23.6392699 L112.918937,22.1902921 C111.550252,24.5260096 109.617788,26.0955909 106.357405,26.0955909 C102.011096,26.0955909 98.9918372,22.7134859 98.951939,18.6077597 L115.776,18.6077597 L115.776,17.8824031 Z" id="Fill-9" fill="#231916"></path>
                        <path d="M86.0445896,7.776 C83.2890837,7.776 80.813259,9.01949029 79.3752669,11.3871373 C78.2978486,9.30052947 76.3409402,7.776 73.2661673,7.776 C70.9099602,7.776 68.7534024,8.69867325 67.3954422,10.7048606 L67.3954422,8.05703918 L64.8,8.05703918 L64.8,28.08 L67.3954422,28.08 L67.3954422,15.1599802 C67.3954422,12.1498344 70.1113625,10.1834249 72.6672191,10.1834249 C75.9416414,10.1834249 77.6989004,12.6314923 77.6989004,15.8820348 L77.6989004,28.08 L80.2943426,28.08 L80.2943426,15.4807973 C80.2943426,11.587756 83.1290199,10.1834249 85.6452908,10.1834249 C88.8396813,10.1834249 90.7174183,12.6314923 90.7174183,15.8820348 L90.7174183,28.08 L93.312,28.08 L93.312,15.8820348 C93.312,10.946122 90.6373865,7.776 86.0445896,7.776" id="Fill-11" fill="#231916"></path>
                        <g id="编组" transform="translate(33.696000, 7.776000)">
                            <mask id="mask-4" fill="white">
                                <use xlink:href="#path-3"></use>
                            </mask>
                            <g id="Clip-14"></g>
                            <path d="M10.262592,18.1295712 C5.932224,18.1295712 2.884896,14.6822112 2.884896,10.4321952 C2.884896,6.1415712 5.932224,2.6942112 10.262592,2.6942112 C14.59296,2.6942112 17.559072,5.7415392 17.559072,10.4321952 C17.559072,15.0831072 14.59296,18.1295712 10.262592,18.1295712 L10.262592,18.1295712 Z M17.158176,2.7339552 C15.475104,1.0897632 13.02912,0.0883872 10.423296,0.0883872 C4.489344,0.0883872 0.279072,4.5785952 0.279072,10.4321952 C0.279072,16.2857952 4.489344,20.7362592 10.423296,20.7362592 C13.02912,20.7362592 15.475104,19.7737632 17.158176,18.0898272 L17.158176,20.4157152 L19.724256,20.4157152 L19.724256,0.4089312 L17.158176,0.4089312 L17.158176,2.7339552 Z" id="Fill-13" fill="#231916" mask="url(#mask-4)"></path>
                        </g>
                        <mask id="mask-6" fill="white">
                            <use xlink:href="#path-5"></use>
                        </mask>
                        <g id="Clip-16"></g>
                        <polygon id="Fill-15" fill="#231916" mask="url(#mask-6)" points="57.888 28.08 60.48 28.08 60.48 0 57.888 0"></polygon>
                    </g>
                </g>
            </g>
        </g>
    </g>
</svg>