<svg id="logo" xmlns="http://www.w3.org/2000/svg" xmlns:xlink="http://www.w3.org/1999/xlink" width="162.63" height="28.512" viewBox="0 0 162.63 28.512">
  <defs>
    <clipPath id="clip-path">
      <path id="Clip_4" data-name="Clip 4" d="M0,0H13.089V20H0Z" transform="translate(0.069 0.079)" fill="none"/>
    </clipPath>
    <clipPath id="clip-path-2">
      <path id="Clip_14" data-name="Clip 14" d="M0,0H19.445V20.648H0Z" transform="translate(0.279 0.088)" fill="none"/>
    </clipPath>
    <clipPath id="clip-path-3">
      <path id="Clip_16" data-name="Clip 16" d="M0,28.512H162.432V0H0Z" fill="none"/>
    </clipPath>
  </defs>
  <path id="Fill_1" data-name="Fill 1" d="M16.473,5.888l2.1-1.224A9.66,9.66,0,0,0,10.208,0,9.957,9.957,0,0,0,0,10.152,9.957,9.957,0,0,0,10.208,20.3a9.6,9.6,0,0,0,8.368-4.69l-2.1-1.2a7.132,7.132,0,0,1-6.265,3.522,7.547,7.547,0,0,1-7.819-7.785,7.561,7.561,0,0,1,7.819-7.814,7.012,7.012,0,0,1,6.265,3.549" transform="translate(129.168 7.776)" fill="#231916"/>
  <g id="编组" transform="translate(149.472 8.208)">
    <path id="Clip_4-2" data-name="Clip 4" d="M0,0H13.089V20H0Z" transform="translate(0.069 0.079)" fill="none"/>
    <g id="编组-2" data-name="编组" clip-path="url(#clip-path)">
      <path id="Fill_3" data-name="Fill 3" d="M8.015,8.131l-.16-.03,4.384-5.913V0H.542V2.261H9.455l-.121.162L4.787,8.573l.979,1.509H6.39c2.592,0,4.268,1.486,4.268,3.786,0,2.282-1.676,3.757-4.268,3.757-2.2,0-3.747-.957-4.364-2.7L0,16.122C.969,18.554,3.351,20,6.39,20c3.227,0,6.7-1.917,6.7-6.131,0-3.527-2.621-5.276-5.074-5.738" transform="translate(0.069 0.079)" fill="#231916"/>
    </g>
  </g>
  <path id="Fill_5" data-name="Fill 5" d="M10.022,20.736a9.692,9.692,0,0,1-7.365-3.03A10.723,10.723,0,0,1,0,10.389,10.642,10.642,0,0,1,2.772,3.02,9.369,9.369,0,0,1,5.96.808,10.575,10.575,0,0,1,10.1,0a9.083,9.083,0,0,1,6.585,2.653,10.493,10.493,0,0,1,2.752,7.453v.725H2.615a7.336,7.336,0,0,0,7.406,7.488,7.075,7.075,0,0,0,6.561-3.905l2.253,1.449A9.63,9.63,0,0,1,10.022,20.736Zm0-18.319A7.4,7.4,0,0,0,2.7,8.536H16.824A6.7,6.7,0,0,0,10.022,2.417Z" transform="translate(12.096 7.776)" fill="#231916"/>
  <path id="Fill_7" data-name="Fill 7" d="M0,0V19.872H2.621V2.384H12.1V0Z" transform="translate(0 8.208)" fill="#231916"/>
  <path id="Fill_9" data-name="Fill 9" d="M10.022,20.736a9.692,9.692,0,0,1-7.365-3.03A10.723,10.723,0,0,1,0,10.389,10.642,10.642,0,0,1,2.772,3.02,9.369,9.369,0,0,1,5.96.808,10.575,10.575,0,0,1,10.1,0a9.084,9.084,0,0,1,6.586,2.653,10.49,10.49,0,0,1,2.752,7.453v.725H2.616a7.333,7.333,0,0,0,7.405,7.488,7.073,7.073,0,0,0,6.561-3.905l2.254,1.449A9.633,9.633,0,0,1,10.022,20.736Zm0-18.319A7.4,7.4,0,0,0,2.7,8.536H16.824A6.7,6.7,0,0,0,10.022,2.417Z" transform="translate(96.336 7.776)" fill="#231916"/>
  <path id="Fill_11" data-name="Fill 11" d="M21.245,0a7.585,7.585,0,0,0-6.669,3.611A6.472,6.472,0,0,0,8.466,0,6.823,6.823,0,0,0,2.6,2.929V.281H0V20.3H2.6V7.384A5.181,5.181,0,0,1,7.867,2.407c3.274,0,5.032,2.448,5.032,5.7V20.3h2.6V7.7c0-3.893,2.835-5.3,5.351-5.3,3.194,0,5.072,2.448,5.072,5.7V20.3h2.595V8.106C28.512,3.17,25.837,0,21.245,0" transform="translate(64.8 7.776)" fill="#231916"/>
  <g id="编组-3" data-name="编组" transform="translate(33.696 7.776)">
    <path id="Clip_14-2" data-name="Clip 14" d="M0,0H19.445V20.648H0Z" transform="translate(0.279 0.088)" fill="none"/>
    <g id="编组-4" data-name="编组" clip-path="url(#clip-path-2)">
      <path id="Fill_13" data-name="Fill 13" d="M10.144,20.648a10.049,10.049,0,0,1-7.3-2.957A10.428,10.428,0,0,1,0,10.344,10.489,10.489,0,0,1,2.847,2.977,10.023,10.023,0,0,1,10.144,0a9.679,9.679,0,0,1,6.736,2.646V.32h2.566V20.327H16.879V18A9.537,9.537,0,0,1,10.144,20.648ZM9.984,2.606a7.4,7.4,0,0,0-7.378,7.738,7.377,7.377,0,0,0,7.378,7.7c4.364,0,7.3-3.093,7.3-7.7C17.28,5.715,14.348,2.606,9.984,2.606Z" transform="translate(0.279 0.088)" fill="#231916"/>
    </g>
  </g>
  <path id="Clip_16-2" data-name="Clip 16" d="M0,28.512H162.432V0H0Z" fill="none"/>
  <g id="Mask_Group_1" data-name="Mask Group 1" clip-path="url(#clip-path-3)">
    <path id="Fill_15" data-name="Fill 15" d="M0,28.08H2.592V0H0Z" transform="translate(57.888)" fill="#231916"/>
  </g>
</svg>
