<?xml version="1.0" encoding="UTF-8"?>
<svg width="340px" height="55px" viewBox="0 0 340 55" version="1.1" xmlns="http://www.w3.org/2000/svg" xmlns:xlink="http://www.w3.org/1999/xlink">
    <!-- Generator: Sketch 52.5 (67469) - http://www.bohemiancoding.com/sketch -->
    <title>Combined shape 26</title>
    <desc>Created with Sketch.</desc>
    <g id="Page-1" stroke="none" stroke-width="1" fill="none" fill-rule="evenodd">
        <g id="web_realme3pro_0419" transform="translate(-341.000000, -494.000000)" fill="#FFFFFF">
            <g id="KV">
                <g id="1-KV-id-2">
                    <g id="tittle" transform="translate(341.000000, 477.000000)">
                        <path d="M331.83618,32.04596 C335.818515,32.04596 339.058755,35.3117 339.058755,39.31976 L339.058755,63.12686 C339.058755,67.13492 335.818515,70.39544 331.83618,70.39544 L285.162165,70.39544 C281.18052,70.39544 277.94166,67.13492 277.94166,63.12686 L277.94166,39.31976 C277.94166,35.3117 281.18052,32.04596 285.162165,32.04596 L331.83618,32.04596 Z M295.62084,40.7048 C299.69322,40.7048 302.537745,43.22294 302.537745,46.83494 C302.537745,50.42594 299.69322,52.93358 295.62084,52.93358 L291.31938,52.93358 L291.31938,61.45334 L288.73395,61.45334 L288.73395,40.7048 L295.62084,40.7048 Z M295.62084,50.51246 C298.274925,50.51246 299.92368,49.1039 299.92368,46.83494 C299.92368,44.54756 298.274925,43.12328 295.62084,43.12328 L291.31938,43.12328 L291.31938,50.51246 L295.62084,50.51246 Z M307.69446,48.35894 C308.515905,47.28872 310.062195,46.58312 311.70612,46.58312 L312.941565,46.58312 L312.941565,48.97532 L311.475315,48.97532 C309.40773,48.97532 308.24094,49.88816 307.69446,51.93416 L307.69446,61.45334 L305.2836,61.45334 L305.2836,46.72736 L307.69446,46.72736 L307.69446,48.35894 Z M321.53172,46.44146 C325.95393,46.44146 329.289045,49.7282 329.289045,54.09038 C329.289045,58.45256 325.95393,61.73924 321.53172,61.73924 C317.10951,61.73924 313.774395,58.45256 313.774395,54.09038 C313.774395,49.7282 317.10951,46.44146 321.53172,46.44146 Z M321.53172,59.49128 C324.594975,59.49128 326.818845,57.21968 326.818845,54.09038 C326.818845,50.96102 324.594975,48.68678 321.53172,48.68678 C318.46812,48.68678 316.24425,50.96102 316.24425,54.09038 C316.24425,57.21968 318.46812,59.49128 321.53172,59.49128 Z M280.530195,39.31976 L280.530195,63.12686 C280.530195,65.6975 282.608475,67.79072 285.162165,67.79072 L331.83618,67.79072 C334.390905,67.79072 336.469185,65.6975 336.469185,63.12686 L336.469185,39.31976 C336.469185,36.74654 334.390905,34.65332 331.83618,34.65332 L285.162165,34.65332 C282.608475,34.65332 280.530195,36.74654 280.530195,39.31976 Z M257.5011,47.79494 C262.183785,48.6842 267.185595,52.04438 267.185595,58.8224 C267.185595,66.92246 260.558835,70.61054 254.40231,70.61054 C248.59941,70.61054 244.052655,67.82216 242.2038,63.14522 L246.092295,60.8369 C247.261845,64.184 250.20297,66.0254 254.40231,66.0254 C259.336155,66.0254 262.523955,63.19772 262.523955,58.8224 C262.523955,54.41822 259.336155,51.5696 254.40231,51.5696 L253.20447,51.5696 L251.32836,48.65798 L260.21763,36.55508 L243.240525,36.55508 L243.240525,32.18498 L265.564785,32.18498 L265.564785,36.40292 L257.390355,47.50904 L257.21682,47.7425 L257.5011,47.79494 Z M41.89611,31.57382 C51.59337,31.57382 59.396925,38.59322 59.472825,50.72492 L59.472825,52.09946 L27.804585,52.09946 C27.88014,59.88476 33.56229,66.29294 41.744655,66.29294 C47.88117,66.29294 51.517815,63.31574 54.093585,58.89062 L58.336395,61.63958 C55.07856,67.28708 49.54821,70.87022 41.744655,70.87022 C29.925645,70.87022 22.880055,62.09336 22.880055,51.26006 C22.880055,40.27196 30.45591,31.57382 41.89611,31.57382 Z M27.955695,47.75036 L54.548295,47.75036 C53.63922,40.57622 48.33588,36.1511 41.744655,36.1511 C35.304885,36.1511 29.319825,40.50278 27.955695,47.75036 Z M-4.13002965e-14,32.26106 L22.7286,32.26106 L22.7286,36.83834 L4.92453,36.83834 L4.92453,70.4138 L-4.13002965e-14,70.4138 L-4.13002965e-14,32.26106 Z M218.31117,50.72492 L218.31117,52.09946 L186.64293,52.09946 C186.718485,59.88476 192.40098,66.29294 200.582655,66.29294 C206.719515,66.29294 210.35616,63.31574 212.93193,58.89062 L217.17474,61.63958 C213.91725,67.28708 208.38621,70.87022 200.582655,70.87022 C188.76399,70.87022 181.718055,62.09336 181.718055,51.26006 C181.718055,40.27196 189.2946,31.57382 200.73411,31.57382 C210.43206,31.57382 218.23527,38.59322 218.31117,50.72492 Z M186.794385,47.75036 L213.38664,47.75036 C212.477565,40.57622 207.17388,36.1511 200.582655,36.1511 C194.142885,36.1511 188.15817,40.50278 186.794385,47.75036 Z M162.76617,31.72598 C171.4788,31.72598 176.554785,37.75118 176.554785,47.14184 L176.554785,70.33508 L171.6306,70.33508 L171.6306,47.14184 C171.6306,40.9592 168.06951,36.30326 162.00855,36.30326 C157.235475,36.30326 151.856235,38.97356 151.856235,46.37588 L151.856235,70.33508 L146.93205,70.33508 L146.93205,47.14184 C146.93205,40.9592 143.598315,36.30326 137.3859,36.30326 C132.536925,36.30326 127.38573,40.04114 127.38573,45.7673 L127.38573,70.33508 L122.460855,70.33508 L122.460855,32.26106 L127.38573,32.26106 L127.38573,37.2974 C129.9615,33.4808 134.05251,31.72598 138.52233,31.72598 C144.355935,31.72598 148.068135,34.62446 150.113985,38.59322 C152.841555,34.09196 157.53873,31.72598 162.76617,31.72598 Z M96.09561,36.76226 L96.09561,32.33714 L100.94493,32.33714 L100.94493,70.4138 L96.09561,70.4138 L96.09561,65.98604 C92.91402,69.19406 88.292745,71.02232 83.36787,71.02232 C72.155025,71.02232 64.20036,62.55506 64.20036,51.41216 C64.20036,40.27196 72.155025,31.72598 83.36787,31.72598 C88.292745,31.72598 92.91402,33.63296 96.09561,36.76226 Z M83.06496,66.0647 C91.247325,66.0647 96.853575,60.2651 96.853575,51.41216 C96.853575,42.4832 91.247325,36.6836 83.06496,36.6836 C74.882595,36.6836 69.12489,43.24916 69.12489,51.41216 C69.12489,59.50178 74.882595,66.0647 83.06496,66.0647 Z M109.240455,70.33508 L109.240455,17 L114.164985,17 L114.164985,70.33508 L109.240455,70.33508 Z" id="Combined-shape-26"></path>
                    </g>
                </g>
            </g>
        </g>
    </g>
</svg>