<?xml version="1.0" encoding="UTF-8"?>
<svg width="149px" height="30px" viewBox="0 0 149 30" version="1.1" xmlns="http://www.w3.org/2000/svg" xmlns:xlink="http://www.w3.org/1999/xlink">
    <!-- Generator: Sketch 52.5 (67469) - http://www.bohemiancoding.com/sketch -->
    <title>M3-pc-产品站-w</title>
    <desc>Created with Sketch.</desc>
    <defs>
        <polygon id="path-1" points="0 29.8924286 148.9 29.8924286 148.9 -0.000428571429 0 -0.000428571429"></polygon>
    </defs>
    <style>
        *{ fill: #333; }
    </style>
    <g id="Symbols" stroke="none" stroke-width="1" fill="none" fill-rule="evenodd">
        <g id="M3-pc-产品站-w" transform="translate(-25.000000, 0.000000)">
            <g transform="translate(25.000000, 0.000000)">
                <path d="M143.502857,17.0405714 L143.344286,17.0105714 L143.44,16.8805714 L147.997143,10.7362857 L147.997143,8.40342857 L135.555714,8.40342857 L135.555714,10.8205714 L145.017143,10.8205714 L140.062857,17.5162857 L141.107143,19.1277143 L141.775714,19.1277143 C144.525714,19.1277143 146.301429,20.7034286 146.301429,23.142 C146.301429,25.562 144.525714,27.1262857 141.775714,27.1262857 C139.434286,27.1262857 137.795714,26.1077143 137.144286,24.2548571 L134.977143,25.5334286 C136.007143,28.1205714 138.541429,29.6634286 141.775714,29.6634286 C145.205714,29.6634286 148.898571,27.6234286 148.898571,23.142 C148.898571,19.392 146.111429,17.532 143.502857,17.0405714" id="Fill-1" fill="#FFFFFF"></path>
                <path d="M15.5801429,17.0147143 C16.3387143,13.0032857 19.6744286,10.5975714 23.2644286,10.5975714 C26.9372857,10.5975714 29.893,13.0461429 30.3987143,17.0147143 L15.5801429,17.0147143 Z M23.3472857,8.06328571 C16.973,8.06328571 12.7515714,12.8775714 12.7515714,18.9575714 C12.7515714,24.9532857 16.6772857,29.8075714 23.2644286,29.8075714 C27.613,29.8075714 30.6944286,27.8232857 32.5101429,24.699 L30.1458571,23.179 C28.7101429,25.6275714 26.683,27.2747143 23.2644286,27.2747143 C18.7044286,27.2747143 15.5372857,23.7275714 15.4944286,19.4218571 L33.143,19.4218571 L33.143,18.6618571 C33.1015714,11.949 28.753,8.06328571 23.3472857,8.06328571 Z" id="Fill-3" fill="#FFFFFF"></path>
                <polygon id="Fill-5" fill="#FFFFFF" points="-0.000285714286 8.444 -0.000285714286 29.554 2.744 29.554 2.744 10.9768571 12.6654286 10.9768571 12.6654286 8.444"></polygon>
                <path d="M104.098571,17.0147143 C104.858571,13.0032857 108.192857,10.5975714 111.782857,10.5975714 C115.455714,10.5975714 118.411429,13.0461429 118.917143,17.0147143 L104.098571,17.0147143 Z M121.662857,18.6618571 C121.62,11.949 117.271429,8.06328571 111.865714,8.06328571 C105.492857,8.06328571 101.27,12.8775714 101.27,18.9575714 C101.27,24.9532857 105.197143,29.8075714 111.782857,29.8075714 C116.131429,29.8075714 119.212857,27.8232857 121.03,24.699 L118.664286,23.179 C117.228571,25.6275714 115.201429,27.2747143 111.782857,27.2747143 C107.222857,27.2747143 104.057143,23.7275714 104.012857,19.4218571 L121.662857,19.4218571 L121.662857,18.6618571 Z" id="Fill-8" fill="#FFFFFF"></path>
                <path d="M90.707,8.149 C87.7941429,8.149 85.177,9.45757143 83.6555714,11.949 C82.517,9.75328571 80.447,8.149 77.197,8.149 C74.7055714,8.149 72.4255714,9.12042857 70.9898571,11.2304286 L70.9898571,8.44471429 L68.2455714,8.44471429 L68.2455714,29.5132857 L70.9898571,29.5132857 L70.9898571,15.9175714 C70.9898571,12.7504286 73.8612857,10.6818571 76.5641429,10.6818571 C80.0255714,10.6818571 81.8827143,13.2575714 81.8827143,16.6775714 L81.8827143,29.5132857 L84.627,29.5132857 L84.627,16.2547143 C84.627,12.1604286 87.6255714,10.6818571 90.2855714,10.6818571 C93.6627143,10.6818571 95.647,13.2575714 95.647,16.6775714 L95.647,29.5132857 L98.3912857,29.5132857 L98.3912857,16.6775714 C98.3912857,11.4832857 95.5627143,8.149 90.707,8.149" id="Fill-10" fill="#FFFFFF"></path>
                <path d="M46.2915714,27.148 C41.7315714,27.148 38.523,23.5165714 38.523,19.0422857 C38.523,14.5237143 41.7315714,10.8937143 46.2915714,10.8937143 C50.8501429,10.8937143 53.9758571,14.1022857 53.9758571,19.0422857 C53.9758571,23.9394286 50.8501429,27.148 46.2915714,27.148 Z M53.553,10.9351429 C51.7801429,9.20371429 49.2044286,8.14942857 46.4601429,8.14942857 C40.2115714,8.14942857 35.7787143,12.878 35.7787143,19.0422857 C35.7787143,25.2065714 40.2115714,29.8922857 46.4601429,29.8922857 C49.2044286,29.8922857 51.7801429,28.8794286 53.553,27.1065714 L53.553,29.5551429 L56.2558571,29.5551429 L56.2558571,8.48657143 L53.553,8.48657143 L53.553,10.9351429 Z" id="Fill-12" fill="#FFFFFF"></path>
                <mask id="mask-2" fill="white">
                    <use xlink:href="#path-1"></use>
                </mask>
                <g id="Clip-15"></g>
                <polygon id="Fill-14" fill="#FFFFFF" mask="url(#mask-2)" points="60.8785714 29.5124286 63.6228571 29.5124286 63.6228571 -0.000428571429 60.8785714 -0.000428571429"></polygon>
            </g>
        </g>
    </g>
</svg>