<svg id="Layer_1" data-name="Layer 1" xmlns="http://www.w3.org/2000/svg" viewBox="0 0 148.8989 29.8927"><defs><style>.cls-1{fill:#333;}</style></defs><title>realme-3-logo-dark</title><g id="Symbols"><g id="M3-pc-产品站-w"><path id="Fill-1" class="cls-1" d="M143.5029,17.0406l-.1586-.03.0957-.13,4.5571-6.1443V8.4034H135.5557v2.4172h9.4614l-4.9542,6.6957,1.0442,1.6114h.6686c2.75,0,4.5257,1.5757,4.5257,4.0143,0,2.42-1.7757,3.9843-4.5257,3.9843-2.3414,0-3.98-1.0186-4.6314-2.8714l-2.1672,1.2785c1.03,2.5872,3.5643,4.13,6.7986,4.13,3.43,0,7.1229-2.04,7.1229-6.5214,0-3.75-2.7872-5.61-5.3957-6.1014" transform="translate(0.0003 0.0004)"/><path id="Fill-3" class="cls-1" d="M15.58,17.0147a7.74,7.74,0,0,1,7.6843-6.4171,7.0033,7.0033,0,0,1,7.1343,6.4171Zm7.7672-8.9514c-6.3743,0-10.5957,4.8143-10.5957,10.8943,0,5.9957,3.9257,10.85,10.5128,10.85A10.1156,10.1156,0,0,0,32.51,24.699l-2.3642-1.52a7.43,7.43,0,0,1-6.8815,4.0957,7.69,7.69,0,0,1-7.77-7.8528H33.143v-.76C33.1016,11.949,28.753,8.0633,23.3473,8.0633Z" transform="translate(0.0003 0.0004)"/><polygon id="Fill-5" class="cls-1" points="0 8.444 0 29.554 2.744 29.554 2.744 10.977 12.666 10.977 12.666 8.444 0 8.444"/><path id="Fill-8" class="cls-1" d="M104.0986,17.0147a7.7408,7.7408,0,0,1,7.6843-6.4171,7.0033,7.0033,0,0,1,7.1342,6.4171Zm17.5643,1.6472c-.0429-6.7129-4.3915-10.5986-9.7972-10.5986-6.3728,0-10.5957,4.8143-10.5957,10.8943,0,5.9957,3.9271,10.85,10.5129,10.85A10.12,10.12,0,0,0,121.03,24.699l-2.3657-1.52a7.43,7.43,0,0,1-6.8814,4.0957,7.69,7.69,0,0,1-7.77-7.8528h17.65Z" transform="translate(0.0003 0.0004)"/><path id="Fill-10" class="cls-1" d="M90.707,8.149a8.03,8.03,0,0,0-7.0514,3.8,6.846,6.846,0,0,0-6.4586-3.8A7.2272,7.2272,0,0,0,70.99,11.23V8.4447H68.2456V29.5133H70.99V15.9176a5.4659,5.4659,0,0,1,5.5742-5.2357c3.4615,0,5.3186,2.5757,5.3186,5.9957V29.5133H84.627V16.2547c0-4.0943,2.9986-5.5728,5.6586-5.5728,3.3771,0,5.3614,2.5757,5.3614,5.9957V29.5133h2.7443V16.6776c0-5.1943-2.8286-8.5286-7.6843-8.5286" transform="translate(0.0003 0.0004)"/><path id="Fill-12" class="cls-1" d="M46.2916,27.148a7.7752,7.7752,0,0,1-7.7686-8.1057c0-4.5186,3.2086-8.1486,7.7686-8.1486,4.5585,0,7.6843,3.2086,7.6843,8.1486C53.9759,23.9394,50.85,27.148,46.2916,27.148ZM53.553,10.9351A10.2045,10.2045,0,0,0,46.46,8.1494c-6.2485,0-10.6814,4.7286-10.6814,10.8929A10.4493,10.4493,0,0,0,46.46,29.8923a10.0234,10.0234,0,0,0,7.0929-2.7857v2.4485h2.7029V8.4866H53.553Z" transform="translate(0.0003 0.0004)"/><rect class="cls-1" x="60.8789" width="2.7443" height="29.5129"/></g></g></svg>