<?xml version="1.0" encoding="UTF-8"?>
<svg width="120px" height="21px" viewBox="0 0 120 21" version="1.1" xmlns="http://www.w3.org/2000/svg" xmlns:xlink="http://www.w3.org/1999/xlink">
    <!-- Generator: Sketch 53.2 (72643) - https://sketchapp.com -->
    <title>Group 19</title>
    <desc>Created with Sketch.</desc>
    <defs>
        <polygon id="path-1" points="0.0998 0.8665 9.328 0.8665 9.328 15.5385 0.0998 15.5385"></polygon>
        <polygon id="path-3" points="0 0.0083 8.8538 0.0083 8.8538 14.7633 0 14.7633"></polygon>
        <polygon id="path-5" points="0 20.8942 119.328 20.8942 119.328 0.0002 0 0.0002"></polygon>
    </defs>
    <g id="Page-1" stroke="none" stroke-width="1" fill="none" fill-rule="evenodd">
        <g id="Group-19">
            <path d="M107.1898,10.0832 L108.7478,9.1792 C107.4978,7.0532 105.1308,5.7362 102.5508,5.7362 C98.2418,5.7362 94.9918,8.9582 94.9918,13.2322 C94.9918,17.5062 98.2418,20.7292 102.5508,20.7292 C105.1448,20.7292 107.5118,19.4032 108.7478,17.2652 L107.1898,16.3802 C106.3228,17.9622 104.5108,18.9812 102.5508,18.9812 C99.1958,18.9812 96.7598,16.5632 96.7598,13.2322 C96.7598,9.8892 99.1958,7.4622 102.5508,7.4622 C104.5448,7.4622 106.3158,8.4652 107.1898,10.0832" id="Fill-1" fill="#FFFFFF"></path>
            <g id="Group-5" transform="translate(110.000000, 4.894200)">
                <mask id="mask-2" fill="white">
                    <use xlink:href="#path-1"></use>
                </mask>
                <g id="Clip-4"></g>
                <path d="M6.4798,9.9775 C7.6788,8.7775 9.0568,7.1525 9.0568,5.2295 C9.0568,3.0615 7.5288,0.8665 4.6098,0.8665 C2.6358,0.8665 1.0088,1.8635 0.1308,3.6055 L1.5848,4.4635 C2.2178,3.2065 3.2688,2.5435 4.6298,2.5435 C5.9238,2.5435 7.3168,3.3905 7.3168,5.2505 C7.3168,6.5925 6.2578,7.8315 5.2218,8.8675 L0.0998,14.0945 L0.0998,15.5385 L9.3288,15.5385 L9.3288,13.8615 L2.5738,13.8615 L6.4798,9.9775 Z" id="Fill-3" fill="#FFFFFF" mask="url(#mask-2)"></path>
            </g>
            <path d="M10.89,11.8932 C11.421,9.0892 13.752,7.4072 16.261,7.4072 C18.828,7.4072 20.894,9.1192 21.248,11.8932 L10.89,11.8932 Z M16.32,5.6372 C11.864,5.6372 8.912,9.0012 8.912,13.2502 C8.912,17.4412 11.657,20.8352 16.261,20.8352 C19.301,20.8352 21.455,19.4482 22.724,17.2642 L21.071,16.2022 C20.068,17.9142 18.651,19.0642 16.261,19.0642 C13.074,19.0642 10.86,16.5852 10.831,13.5752 L23.167,13.5752 L23.167,13.0442 C23.137,8.3512 20.098,5.6372 16.32,5.6372 L16.32,5.6372 Z" id="Fill-6" fill="#FFFFFF"></path>
            <g id="Group-10" transform="translate(0.000000, 5.894200)">
                <mask id="mask-4" fill="white">
                    <use xlink:href="#path-3"></use>
                </mask>
                <g id="Clip-9"></g>
                <polygon id="Fill-8" fill="#FFFFFF" mask="url(#mask-4)" points="-0.0002 0.0083 -0.0002 14.7633 1.9178 14.7633 1.9178 1.7793 8.8538 1.7793 8.8538 0.0083"></polygon>
            </g>
            <path d="M72.7621,11.8932 C73.2931,9.0892 75.6251,7.4072 78.1341,7.4072 C80.7011,7.4072 82.7671,9.1192 83.1211,11.8932 L72.7621,11.8932 Z M85.0391,13.0442 C85.0101,8.3512 81.9701,5.6372 78.1931,5.6372 C73.7371,5.6372 70.7851,9.0012 70.7851,13.2502 C70.7851,17.4412 73.5301,20.8352 78.1341,20.8352 C81.1731,20.8352 83.3271,19.4482 84.5971,17.2642 L82.9441,16.2022 C81.9411,17.9142 80.5241,19.0642 78.1341,19.0642 C74.9471,19.0642 72.7331,16.5852 72.7031,13.5752 L85.0391,13.5752 L85.0391,13.0442 Z" id="Fill-11" fill="#FFFFFF"></path>
            <path d="M63.4027,5.696 C61.3667,5.696 59.5367,6.611 58.4737,8.352 C57.6767,6.817 56.2317,5.696 53.9597,5.696 C52.2177,5.696 50.6247,6.375 49.6207,7.85 L49.6207,5.903 L47.7027,5.903 L47.7027,20.629 L49.6207,20.629 L49.6207,11.126 C49.6207,8.912 51.6277,7.467 53.5157,7.467 C55.9357,7.467 57.2347,9.267 57.2347,11.657 L57.2347,20.629 L59.1527,20.629 L59.1527,11.362 C59.1527,8.499 61.2487,7.467 63.1077,7.467 C65.4677,7.467 66.8557,9.267 66.8557,11.657 L66.8557,20.629 L68.7737,20.629 L68.7737,11.657 C68.7737,8.027 66.7967,5.696 63.4027,5.696" id="Fill-13" fill="#FFFFFF"></path>
            <path d="M32.3568,18.9757 C29.1688,18.9757 26.9258,16.4377 26.9258,13.3097 C26.9258,10.1517 29.1688,7.6137 32.3568,7.6137 C35.5448,7.6137 37.7278,9.8567 37.7278,13.3097 C37.7278,16.7327 35.5448,18.9757 32.3568,18.9757 L32.3568,18.9757 Z M37.4328,7.6437 C36.1928,6.4337 34.3928,5.6957 32.4748,5.6957 C28.1068,5.6957 25.0078,9.0007 25.0078,13.3097 C25.0078,17.6187 28.1068,20.8937 32.4748,20.8937 C34.3928,20.8937 36.1928,20.1857 37.4328,18.9467 L37.4328,20.6577 L39.3218,20.6577 L39.3218,5.9317 L37.4328,5.9317 L37.4328,7.6437 Z" id="Fill-15" fill="#FFFFFF"></path>
            <mask id="mask-6" fill="white">
                <use xlink:href="#path-5"></use>
            </mask>
            <g id="Clip-18"></g>
            <polygon id="Fill-17" fill="#FFFFFF" mask="url(#mask-6)" points="42.553 20.6282 44.471 20.6282 44.471 0.0002 42.553 0.0002"></polygon>
        </g>
    </g>
</svg>